<?xml version="1.0" encoding="utf-8"?>
<!-- Generator: Adobe Illustrator 16.0.0, SVG Export Plug-In . SVG Version: 6.00 Build 0)  -->
<!DOCTYPE svg PUBLIC "-//W3C//DTD SVG 1.1//EN" "http://www.w3.org/Graphics/SVG/1.1/DTD/svg11.dtd">
<svg version="1.1" xmlns="http://www.w3.org/2000/svg" xmlns:xlink="http://www.w3.org/1999/xlink" x="0px" y="0px" width="75px"
	 height="45px" viewBox="0 0 75 45" enable-background="new 0 0 75 45" xml:space="preserve">
<g id="Layer_1" display="none">
	<g display="inline">
		<path fill-rule="evenodd" clip-rule="evenodd" fill="#FFFFFF" d="M53.822,1.848c1.172,0.227,2.291,0.411,3.393,0.661
			c4.782,1.08,9.343,2.776,13.709,4.999c0.418,0.212,0.804,0.485,1.222,0.7c0.307,0.158,0.362,0.368,0.325,0.693
			c-0.225,2.041-0.98,3.873-2.152,5.544c-1.537,2.193-3.53,3.895-5.747,5.358c-1.494,0.987-3.07,1.825-4.702,2.558
			c-0.081,0.037-0.161,0.079-0.297,0.146c0.303,0.14,0.557,0.257,0.81,0.375c2.776,1.304,5.371,2.883,7.608,4.999
			c1.72,1.626,3.146,3.47,3.909,5.734c0.281,0.841,0.393,1.737,0.585,2.606c0.052,0.246-0.03,0.393-0.248,0.529
			c-1.629,1.02-3.373,1.802-5.138,2.539c-3.302,1.381-6.676,2.538-10.185,3.281c-1.003,0.213-2.019,0.383-3.08,0.581
			c0-0.197,0-0.331,0-0.466c0.005-3.933-0.008-7.86,0.021-11.794c0.014-2.116-0.726-3.937-2.025-5.56
			c-0.074-0.096-0.275-0.163-0.393-0.135c-2.367,0.545-4.759,0.952-7.177,1.212c-2.838,0.304-5.69,0.42-8.545,0.335
			c-4.087-0.117-8.127-0.615-12.11-1.554c-0.22-0.056-0.333,0.009-0.459,0.169c-1.294,1.664-2.004,3.512-1.981,5.65
			c0.042,3.888,0.022,7.771,0.028,11.655c0,0.136,0,0.271,0,0.461c-0.621-0.099-1.205-0.182-1.785-0.291
			C14.198,41.848,9.26,40.059,4.512,37.72c-0.604-0.295-1.172-0.67-1.764-0.993c-0.201-0.11-0.251-0.241-0.228-0.468
			c0.256-2.617,1.375-4.845,3.044-6.826c1.903-2.257,4.245-3.966,6.808-5.391c0.979-0.543,1.993-1.022,3.031-1.551
			c-0.315-0.148-0.617-0.289-0.917-0.431c-2.993-1.418-5.768-3.157-8.09-5.549c-1.677-1.726-2.98-3.685-3.574-6.052
			C2.681,9.895,2.62,9.311,2.51,8.737c-0.041-0.213,0.04-0.33,0.216-0.442c1.452-0.931,3.012-1.652,4.591-2.327
			c3.63-1.554,7.348-2.838,11.224-3.627c0.83-0.168,1.669-0.292,2.504-0.435c0.032-0.005,0.066,0.007,0.139,0.016
			c0,0.134,0,0.268,0,0.402c-0.005,3.955,0.001,7.908-0.024,11.861c-0.014,2.107,0.751,3.909,2.039,5.523
			c0.068,0.085,0.261,0.141,0.373,0.113c3.385-0.802,6.82-1.274,10.29-1.474c3.588-0.206,7.168-0.109,10.743,0.298
			c2.3,0.261,4.578,0.652,6.834,1.171c0.116,0.028,0.315-0.048,0.392-0.143c1.312-1.647,2.04-3.493,2.021-5.634
			c-0.038-3.896-0.022-7.793-0.028-11.689C53.821,2.207,53.822,2.062,53.822,1.848z M48.568,22.497
			c-6.037-3.936-16.955-3.557-22.103,0.018C31.961,26.223,42.821,26.319,48.568,22.497z"/>
	</g>
</g>
<g id="Layer_2">
	<g>
		<path fill-rule="evenodd" clip-rule="evenodd" fill="#FFFFFF" d="M69.871,3.972c1.382,0,2.728,0,4.105,0
			c0.007,0.124,0.021,0.24,0.021,0.357c0.002,9.978,0.009,19.955-0.006,29.933c-0.003,2.684-1.013,4.812-3.184,6.105
			c-2.103,1.259-4.207,1.021-6.218-0.345c-1.226-0.833-2.155-1.996-2.875-3.355c-2.315-4.363-4.616-8.74-6.919-13.11
			c-0.07-0.131-0.14-0.261-0.277-0.379c0,0.125,0,0.249,0,0.376c0,3.628,0.003,7.258-0.001,10.888
			c-0.004,3.234-2.001,5.971-4.865,6.595c-1.973,0.428-3.72-0.214-5.265-1.58c-0.955-0.844-1.693-1.892-2.306-3.053
			c-2.267-4.307-4.537-8.608-6.806-12.912c-0.05-0.096-0.103-0.187-0.216-0.275c-0.004,0.12-0.013,0.244-0.013,0.366
			c-0.001,3.318,0.004,6.637-0.003,9.957c-0.003,1.078-0.105,2.146-0.439,3.171c-0.779,2.389-2.359,3.713-4.581,4.155
			c-0.511,0.103-1.04,0.138-1.561,0.14c-3.576,0.013-7.151,0.022-10.727,0.002c-4.312-0.021-8.076-1.65-11.259-4.84
			C3.561,33.241,1.792,29.599,1.196,25.3C0.088,17.31,3.749,9.591,10.195,5.971c2.202-1.237,4.537-1.928,7.009-1.984
			c1.932-0.044,3.866-0.025,5.799-0.039c0.165-0.001,0.264,0.028,0.263,0.25c-0.007,1.376-0.004,2.752-0.006,4.128
			c0,0.053-0.018,0.106-0.033,0.187c-0.126,0-0.245,0-0.364,0c-1.842,0.004-3.687-0.047-5.528,0.024
			C11.36,8.763,6.292,13.685,5.324,20.148c-1.107,7.392,3.143,14.354,9.787,15.979c0.828,0.202,1.693,0.299,2.542,0.307
			c3.474,0.033,6.95-0.033,10.423,0.035c1.505,0.031,2.836-1.299,2.829-3.111c-0.031-7.37-0.013-14.739-0.013-22.109
			c0-0.101,0.003-0.201,0-0.3c-0.021-0.498,0.123-0.897,0.565-1.104c0.379-0.179,0.825-0.034,1.162,0.388
			c0.131,0.164,0.243,0.354,0.343,0.544c4.232,8.036,8.464,16.072,12.691,24.107c0.339,0.645,0.733,1.22,1.35,1.569
			c1.513,0.854,3.266-0.242,3.371-2.109c0.008-0.155,0.01-0.312,0.01-0.467c0-7.604,0-15.206,0-22.808
			c0-0.702,0.191-1.092,0.606-1.248c0.432-0.161,0.912,0.026,1.236,0.589c0.526,0.917,1.01,1.865,1.505,2.804
			c3.826,7.268,7.654,14.537,11.479,21.808c0.43,0.817,0.994,1.461,1.863,1.664c1.446,0.341,2.759-0.829,2.795-2.472
			c0.008-0.309,0.002-0.619,0.002-0.931c0-9.6,0-19.201,0-28.802C69.871,4.32,69.871,4.158,69.871,3.972z"/>
		<path fill-rule="evenodd" clip-rule="evenodd" fill="#FFFFFF" d="M23.243,10.062c0,1.534,0,3.037,0,4.571
			c-0.127,0-0.237,0-0.344,0c-1.712,0-3.425,0-5.137,0c-3.393,0.002-6.411,2.858-6.936,6.562c-0.603,4.258,1.838,8.151,5.666,9.013
			c0.461,0.104,0.938,0.148,1.409,0.152c2.044,0.016,4.089,0.006,6.134,0.006c0.879-0.001,1.317-0.484,1.317-1.45
			c0-6.105-0.001-12.21,0.002-18.315c0.001-3.007,1.7-5.631,4.229-6.482c2.083-0.7,3.976-0.183,5.691,1.225
			c1.051,0.861,1.85,1.97,2.504,3.21c2.27,4.304,4.537,8.609,6.807,12.914c0.054,0.104,0.113,0.203,0.24,0.302
			c0-0.123,0-0.246,0-0.369c0-3.463-0.003-6.926,0.002-10.389c0.002-0.97,0.1-1.922,0.403-2.843
			c0.889-2.692,3.229-4.466,5.816-4.347c2.01,0.094,3.617,1.131,4.913,2.763c0.501,0.63,0.948,1.328,1.333,2.051
			c2.273,4.274,4.525,8.566,6.783,12.852c0.055,0.104,0.112,0.206,0.227,0.298c0-5.924,0-11.848,0-17.803c1.409,0,2.781,0,4.176,0
			c0,0.131,0,0.252,0,0.372c0,9.856,0,19.712,0,29.568c0,0.044,0.001,0.087,0,0.134c-0.009,0.557-0.213,0.938-0.598,1.091
			c-0.448,0.179-0.822-0.008-1.111-0.366c-0.217-0.271-0.386-0.594-0.553-0.908c-4.198-7.969-8.392-15.938-12.586-23.907
			c-0.423-0.804-0.976-1.438-1.832-1.664c-1.308-0.343-2.604,0.64-2.776,2.111c-0.029,0.241-0.042,0.485-0.043,0.729
			c-0.001,7.569-0.001,15.138-0.001,22.709c0,0.121,0.001,0.244-0.002,0.364c-0.01,0.402-0.168,0.704-0.494,0.889
			c-0.327,0.185-0.67,0.163-0.935-0.095c-0.266-0.26-0.509-0.57-0.687-0.908c-4.112-7.793-8.213-15.59-12.322-23.384
			c-0.272-0.517-0.542-1.047-0.887-1.501c-0.589-0.774-1.371-1.128-2.291-0.934c-0.883,0.187-1.48,0.784-1.749,1.729
			c-0.094,0.332-0.121,0.698-0.122,1.048c-0.007,7.437-0.005,14.874-0.005,22.309c0,1.032-0.475,1.562-1.406,1.562
			c-3.384,0.001-6.768,0.004-10.152,0c-5.711-0.007-9.966-4.373-11.093-9.577c-1.468-6.777,2.531-13.701,8.742-15.029
			c0.755-0.161,1.535-0.233,2.306-0.25c1.67-0.037,3.344-0.011,5.016-0.011C23.008,10.062,23.116,10.062,23.243,10.062z"/>
	</g>
</g>
</svg>
