<?xml version="1.0" encoding="utf-8"?>
<!-- Generator: Adobe Illustrator 16.0.0, SVG Export Plug-In . SVG Version: 6.00 Build 0)  -->
<!DOCTYPE svg PUBLIC "-//W3C//DTD SVG 1.1//EN" "http://www.w3.org/Graphics/SVG/1.1/DTD/svg11.dtd">
<svg version="1.1" id="Layer_1" xmlns="http://www.w3.org/2000/svg" xmlns:xlink="http://www.w3.org/1999/xlink" x="0px" y="0px"
	 width="75px" height="45px" viewBox="0 0 75 45" enable-background="new 0 0 75 45" xml:space="preserve">
<g id="Layer_1_1_" display="none">
	<g display="inline">
		<path fill="#FFFFFF" d="M53.822,1.848c1.172,0.227,2.291,0.411,3.393,0.661c4.782,1.08,9.344,2.776,13.709,4.999
			c0.418,0.212,0.805,0.485,1.223,0.7c0.307,0.158,0.361,0.368,0.324,0.693c-0.225,2.041-0.979,3.873-2.152,5.544
			c-1.536,2.193-3.529,3.895-5.746,5.358c-1.494,0.987-3.07,1.825-4.702,2.558c-0.081,0.037-0.161,0.079-0.297,0.146
			c0.303,0.14,0.557,0.257,0.81,0.375c2.776,1.304,5.371,2.884,7.608,4.999c1.72,1.626,3.146,3.471,3.909,5.734
			c0.281,0.841,0.393,1.736,0.584,2.605c0.053,0.246-0.029,0.393-0.248,0.529c-1.629,1.02-3.373,1.803-5.137,2.539
			c-3.303,1.381-6.677,2.538-10.186,3.281c-1.003,0.213-2.02,0.383-3.08,0.58c0-0.196,0-0.33,0-0.465
			c0.005-3.934-0.008-7.86,0.021-11.795c0.014-2.115-0.727-3.937-2.025-5.56c-0.074-0.097-0.275-0.163-0.393-0.136
			c-2.367,0.546-4.76,0.953-7.178,1.213c-2.838,0.304-5.689,0.42-8.545,0.335c-4.087-0.117-8.127-0.615-12.11-1.554
			c-0.22-0.057-0.333,0.008-0.459,0.168c-1.294,1.664-2.004,3.513-1.981,5.65c0.042,3.889,0.022,7.771,0.028,11.655
			c0,0.136,0,0.271,0,0.461c-0.621-0.099-1.205-0.183-1.785-0.291c-5.21-0.985-10.148-2.774-14.896-5.112
			c-0.604-0.296-1.172-0.671-1.764-0.994c-0.201-0.109-0.251-0.24-0.228-0.468c0.256-2.616,1.375-4.845,3.044-6.825
			c1.903-2.258,4.245-3.967,6.808-5.392c0.979-0.543,1.993-1.022,3.031-1.551c-0.315-0.148-0.617-0.289-0.917-0.431
			c-2.993-1.418-5.768-3.157-8.09-5.549c-1.677-1.726-2.98-3.685-3.574-6.052C2.681,9.895,2.62,9.311,2.51,8.737
			c-0.041-0.213,0.04-0.33,0.216-0.442c1.452-0.931,3.012-1.652,4.591-2.327c3.63-1.554,7.348-2.838,11.224-3.627
			c0.83-0.168,1.669-0.292,2.504-0.435c0.032-0.005,0.066,0.007,0.139,0.016c0,0.134,0,0.268,0,0.402
			c-0.005,3.955,0.001,7.908-0.024,11.861c-0.014,2.107,0.751,3.909,2.039,5.523c0.068,0.085,0.261,0.141,0.373,0.113
			c3.385-0.802,6.82-1.274,10.29-1.474c3.588-0.206,7.167-0.109,10.744,0.298c2.299,0.261,4.578,0.652,6.834,1.171
			c0.115,0.028,0.314-0.048,0.392-0.143c1.312-1.647,2.04-3.493,2.021-5.634c-0.037-3.896-0.021-7.793-0.027-11.689
			C53.82,2.207,53.822,2.062,53.822,1.848z M48.568,22.497c-6.037-3.936-16.956-3.557-22.104,0.018
			C31.961,26.223,42.82,26.318,48.568,22.497z"/>
	</g>
</g>
<g>
	<g>
		<defs>
			<rect id="SVGID_1_" x="1.5" y="8.864" width="72" height="27.271"/>
		</defs>
		<clipPath id="SVGID_2_">
			<use xlink:href="#SVGID_1_"  overflow="visible"/>
		</clipPath>
		<path clip-path="url(#SVGID_2_)" fill="#FFFFFF" d="M30.174,22.402c-0.001-3.25,1.974-5.599,5.157-6.141
			c1.842-0.314,3.675-0.283,5.472,0.281c2.269,0.713,3.381,2.23,3.386,4.61c0.007,3.574,0.001,7.149,0.003,10.723
			c0,0.377,0.017,0.752,0.037,1.127c0.056,0.991,0.494,1.379,1.479,1.308c0.234-0.017,0.467-0.054,0.781-0.093
			c0,0.383,0.024,0.721-0.014,1.054c-0.012,0.106-0.169,0.259-0.282,0.283c-0.78,0.165-1.561,0.181-2.316-0.126
			c-0.94-0.381-1.132-1.209-1.213-2.086c-0.034-0.372-0.006-0.751-0.006-1.172c-0.07,0.042-0.118,0.053-0.133,0.082
			c-1.158,2.236-3.098,3.352-5.495,3.744c-1.677,0.274-3.344,0.16-4.936-0.486c-1.858-0.753-2.751-2.199-2.908-4.158
			c-0.075-0.947-0.023-1.879,0.318-2.773c0.559-1.461,1.657-2.409,3.106-2.84c1.249-0.371,2.559-0.554,3.852-0.752
			c1.415-0.217,2.855-0.288,4.261-0.55c1.419-0.263,1.876-0.909,1.932-2.351c0.093-2.393-1.046-3.899-3.394-4.456
			c-1.499-0.355-2.995-0.303-4.436,0.243c-1.896,0.718-2.879,2.172-3.103,4.153c-0.041,0.363-0.168,0.472-0.506,0.446
			c-0.289-0.022-0.581-0.005-0.871-0.012C30.299,22.458,30.252,22.429,30.174,22.402 M42.659,25.141
			c-0.642,0.221-1.202,0.496-1.792,0.6c-1.089,0.193-2.195,0.295-3.296,0.416c-1.44,0.158-2.896,0.231-4.271,0.748
			c-1.826,0.687-2.646,1.932-2.615,3.951c0.024,1.639,1.066,2.989,2.743,3.578c0.957,0.336,1.944,0.33,2.937,0.297
			c2.845-0.093,5.115-1.846,5.974-4.564C42.862,28.504,42.536,26.808,42.659,25.141"/>
		<path clip-path="url(#SVGID_2_)" fill="#FFFFFF" d="M27.048,29.096c-0.233,1.66-0.79,3.085-1.8,4.315
			c-1.059,1.288-2.438,2.06-4.055,2.429c-1.857,0.426-3.701,0.408-5.499-0.254c-2.435-0.895-3.998-2.68-4.752-5.104
			c-1.089-3.5-0.902-6.962,0.82-10.24c1.557-2.964,4.509-4.401,7.85-4.134c4.128,0.33,6.683,3.131,7.362,6.929
			c0.162,0.9,0.141,1.834,0.23,2.75c0.046,0.465-0.137,0.572-0.578,0.57c-3.85-0.014-7.698-0.008-11.548-0.008
			c-0.924,0-1.848,0.006-2.771-0.002c-0.273-0.003-0.462,0.036-0.451,0.383c0.064,2.175,0.588,4.194,2.039,5.881
			c1.164,1.354,2.663,2.045,4.444,2.127c2.278,0.106,4.254-0.535,5.747-2.346c0.642-0.779,1.088-1.668,1.291-2.648
			c0.109-0.531,0.335-0.727,0.856-0.654C26.48,29.123,26.733,29.096,27.048,29.096 M25.698,24.956
			c-0.075-0.585-0.113-1.114-0.217-1.63c-0.094-0.465-0.231-0.927-0.398-1.372c-1.372-3.655-5.053-5.45-8.51-4.113
			c-2.282,0.883-3.532,2.714-4.263,4.949c-0.223,0.683-0.327,1.403-0.499,2.166H25.698z"/>
		<path clip-path="url(#SVGID_2_)" fill="#FFFFFF" d="M63.725,36.125c-1.811-0.034-3.523-0.347-5.038-1.373
			c-1.809-1.225-2.614-3.002-2.79-5.121c-0.025-0.309,0.081-0.422,0.395-0.438c1.022-0.051,1.022-0.062,1.241,0.925
			c0.619,2.79,2.745,4.534,5.619,4.62c1.588,0.047,3.148-0.074,4.582-0.844c1.951-1.045,2.522-3.561,1.187-5.201
			c-0.538-0.659-1.26-1.076-2.058-1.289c-1.58-0.42-3.192-0.724-4.769-1.158c-1.096-0.301-2.204-0.637-3.217-1.139
			c-1.69-0.839-2.354-2.356-2.318-4.191c0.036-1.902,0.98-3.233,2.685-4.021c1.491-0.688,3.084-0.871,4.703-0.814
			c1.321,0.046,2.618,0.259,3.808,0.894c1.651,0.882,2.527,2.289,2.765,4.122c0.002,0.017,0.001,0.034,0.004,0.051
			c0.172,1.316,0.231,1.089-1.11,1.116c-0.258,0.005-0.365-0.086-0.374-0.353c-0.111-2.937-2.137-4.268-4.831-4.467
			c-1.377-0.101-2.734,0.045-4.014,0.61c-1.883,0.831-2.636,2.732-1.764,4.426c0.37,0.72,0.969,1.239,1.709,1.473
			c1.458,0.463,2.951,0.816,4.426,1.229c1.293,0.362,2.627,0.636,3.863,1.141c1.852,0.756,2.67,2.272,2.718,4.26
			c0.049,2.057-0.818,3.554-2.629,4.501C67.011,35.873,65.373,36.08,63.725,36.125"/>
		<path clip-path="url(#SVGID_2_)" fill="#FFFFFF" d="M4.863,17.84H1.5v-1.276h3.363c0-1.346-0.014-2.625,0.009-3.902
			c0.006-0.422,0.052-0.856,0.165-1.261c0.411-1.466,1.641-2.416,3.316-2.526c0.676-0.044,1.36,0.056,2.042,0.076
			c0.353,0.01,0.492,0.174,0.463,0.516c-0.013,0.153-0.009,0.308,0,0.461c0.021,0.347-0.11,0.44-0.462,0.373
			c-0.843-0.161-1.693-0.223-2.532,0.045c-0.839,0.268-1.351,0.86-1.396,1.716c-0.072,1.382-0.038,2.769-0.056,4.154
			c-0.004,0.323,0.188,0.341,0.437,0.339c0.957-0.007,1.915-0.003,2.873-0.003c0.185,0,0.369,0,0.594,0v1.267
			c-0.173,0.01-0.353,0.029-0.532,0.029c-0.976,0.003-1.95,0.014-2.925-0.005c-0.333-0.006-0.477,0.101-0.449,0.435
			c0.013,0.153,0.001,0.308,0.001,0.462c-0.001,5.405,0.002,10.81-0.008,16.215c0,0.235-0.072,0.659-0.164,0.675
			c-0.411,0.066-0.845,0.037-1.263-0.013c-0.058-0.007-0.108-0.331-0.108-0.507c-0.007-2.839-0.005-5.678-0.005-8.518v-8.057V17.84z
			"/>
		<path clip-path="url(#SVGID_2_)" fill="#FFFFFF" d="M49.297,10.629h1.487v5.917h4.141v1.294h-4.113v0.579
			c0,4.223-0.004,8.447,0.006,12.669c0.001,0.441,0.038,0.893,0.134,1.322c0.278,1.254,1.086,1.844,2.554,1.902
			c0.441,0.016,0.883,0.002,1.41,0.002c0,0.397,0.024,0.752-0.016,1.098c-0.013,0.104-0.217,0.272-0.324,0.265
			c-0.932-0.06-1.89-0.04-2.786-0.263c-1.619-0.402-2.472-1.727-2.476-3.629c-0.011-4.412-0.005-8.822-0.005-13.233v-0.677h-3.484
			v-1.305h3.473V10.629z"/>
		<path clip-path="url(#SVGID_2_)" fill="#FFFFFF" d="M73.352,35.48c-0.051-0.103-0.103-0.205-0.155-0.311
			c-0.07,0.102-0.145,0.207-0.242,0.347c-0.103-0.11-0.182-0.192-0.266-0.282c-0.069,0.078-0.146,0.164-0.285,0.322
			c-0.037-0.219-0.089-0.351-0.071-0.473c0.03-0.217,0.104-0.428,0.16-0.643c0.152,0.133,0.304,0.264,0.483,0.42
			c0.04-0.073,0.08-0.184,0.151-0.268c0.057-0.067,0.152-0.104,0.231-0.153c0.046,0.08,0.127,0.157,0.132,0.241
			c0.017,0.259,0.006,0.521,0.006,0.781C73.448,35.469,73.399,35.475,73.352,35.48"/>
		<path clip-path="url(#SVGID_2_)" fill="#FFFFFF" d="M72.161,34.475c-0.107,0.353-0.204,0.668-0.332,1.09
			c-0.124-0.412-0.219-0.729-0.328-1.09H72.161z"/>
	</g>
</g>
</svg>
