<?xml version="1.0" encoding="utf-8"?>
<!-- Generator: Adobe Illustrator 21.0.0, SVG Export Plug-In . SVG Version: 6.00 Build 0)  -->
<svg version="1.1" id="Layer_1" xmlns="http://www.w3.org/2000/svg" xmlns:xlink="http://www.w3.org/1999/xlink" x="0px" y="0px"
	 viewBox="0 0 500 500" style="enable-background:new 0 0 500 500;" xml:space="preserve">
<style type="text/css">
	.st0{display:none;}
	.st1{display:inline;fill:#024D28;}
	.st2{fill:#024D28;}
	.st3{fill:#FFFFFF;}
</style>
<g id="Layer_2" class="st0">
	<rect x="-208.5" y="-208.5" class="st1" width="1000" height="1000"/>
</g>
<path class="st2" d="M500,250c0,138.1-111.9,250-250,250C111.9,500,0,388.1,0,250C0,111.9,111.9,0,250,0C388.1,0,500,111.9,500,250z
	"/>
<g>
	<g>
		<g>
			<g>
				<path class="st3" d="M145.8,113.9c32.1,5,64.1,11.6,95.5,19.7c29.7,7.6,62.5,15.9,86.9,35.5c0.4,0.4,0.9,0.7,1.3,1.1
					c1.6,1.3-1.3-1.1,0,0c1.2,1,2.3,2.1,3.5,3.1c2.6,2.4,5,4.9,7.4,7.5c2.7,3,5.3,6.2,7.7,9.4c1.3,1.7,2.5,3.5,3.7,5.3
					c0.7,1.1-0.3-0.5-0.4-0.6c0.3,0.5,0.7,1,1,1.5c0.7,1.2,1.4,2.4,2.1,3.6c2.5,4.4,4.8,9,6.8,13.6c0.2,0.5,1.5,3.8,1,2.3
					c-0.6-1.5,0.7,1.9,0.9,2.4c1,2.8,1.9,5.6,2.6,8.4c0.4,1.5,0.8,3,1.1,4.4c0.2,0.8,0.3,1.5,0.5,2.3c0-0.2-0.4-2.5-0.2-0.8
					c0.5,3.2,1.1,6.4,1.5,9.6c0.2,1.7,0.4,3.4,0.5,5c0.1,0.6,0.1,1.3,0.2,1.9c-0.3-3.3-0.1-0.9,0-0.2c0.1,3.6,0.2,7.3,0.1,10.9
					c0,1.9-0.1,3.8-0.2,5.7c0.1-2.9-0.1,1.6-0.2,2.4c-0.4,4.1-0.9,8.1-1.6,12.2c-1.1,6.6-2.2,11.7-4.4,18.8c-0.4,1.4-0.9,2.7-1.4,4
					c-0.1,0.3-1,2.7-0.4,1.2c0.5-1.3-0.2,0.5-0.3,0.6c-1.3,3.1-2.7,6.1-4.2,9c-3,5.9-4.7,8.6-8.4,13.4c-13.9,18.4-32.7,31.1-54,40
					c-47.6,20-102.4,21.1-153.1,16.9c-6.3-0.5-12.6-1.2-18.9-1.9c-6.3-0.7-7.9,11.6-7.8,15.6c0.1,5,1.2,14.8,7.8,15.6
					c53.7,6.2,110.5,6.4,162.3-10.9c23.5-7.9,45.7-20.2,63-38.2c19.8-20.6,30.1-47.3,34.7-75.1c8.3-49.6-2.4-103.9-38.9-140.2
					c-21.5-21.4-49.3-31.5-78-39.9c-38.5-11.3-78-19.5-117.6-25.9c-0.8-0.1-1.5-0.3-2.3-0.4c-6.2-1-7.9,11.8-7.8,15.6
					C138.1,103.7,139.2,112.9,145.8,113.9L145.8,113.9z"/>
			</g>
		</g>
		<g>
			<g>
				<path class="st3" d="M274.1,133.8c-9.1,29-18.3,58-27.4,86.9c-14.5,45.8-28.9,91.7-43.4,137.5c-3.3,10.6-6.7,21.2-10,31.8
					c-2,6.3-1.9,16.1,2.8,21.3c4.8,5.3,9.2-1,10.6-5.6c9.1-29,18.3-58,27.4-86.9c14.5-45.8,28.9-91.7,43.4-137.5
					c3.3-10.6,6.7-21.2,10-31.8c2-6.3,1.9-16.1-2.8-21.3C279.9,122.9,275.5,129.2,274.1,133.8L274.1,133.8z"/>
			</g>
		</g>
	</g>
</g>
</svg>
