<?xml version="1.0" encoding="utf-8"?>
<!-- Generator: Adobe Illustrator 16.0.0, SVG Export Plug-In . SVG Version: 6.00 Build 0)  -->
<!DOCTYPE svg PUBLIC "-//W3C//DTD SVG 1.1//EN" "http://www.w3.org/Graphics/SVG/1.1/DTD/svg11.dtd">
<svg version="1.1" id="Layer_1" xmlns="http://www.w3.org/2000/svg" xmlns:xlink="http://www.w3.org/1999/xlink" x="0px" y="0px"
	 width="144px" height="36.1px" viewBox="2 1.9 144 36.1" enable-background="new 2 1.9 144 36.1" xml:space="preserve">
<g display="none">
	<rect x="110" y="1.9" display="inline" width="36" height="36"/>
	<rect x="74" y="2" display="inline" width="36" height="36"/>
	<rect x="38" y="2" display="inline" width="36" height="36"/>
	<rect x="2" y="2" display="inline" width="36" height="36"/>
</g>
<g>
	<g>
		<path fill="#FFFFFF" d="M25.065,9.9h-2.604c-2.958,0-4.852,1.894-4.852,4.97v2.249h-2.604c-0.237,0-0.355,0.237-0.355,0.354v3.314
			c0,0.235,0.236,0.355,0.355,0.355h2.604v8.401c0,0.236,0.236,0.355,0.354,0.355h3.433c0.236,0,0.354-0.236,0.354-0.355v-8.401
			h3.078c0.236,0,0.355-0.237,0.355-0.355v-3.314c0-0.118,0-0.236-0.119-0.236c-0.119-0.118-0.236-0.118-0.236-0.118h-3.078v-1.894
			c0-0.947,0.237-1.42,1.421-1.42h1.774c0.237,0,0.355-0.237,0.355-0.355v-3.195C25.421,10.019,25.302,9.9,25.065,9.9L25.065,9.9z"
			/>
	</g>
</g>
<g>
	<g>
		<g>
			<path fill="#FFFFFF" d="M136.118,15.43h-5.059v-1.294h5.059V15.43z M127.764,20.489c0.354,0.47,0.473,1.058,0.473,1.765
				c0,0.705-0.236,1.411-0.59,2c-0.234,0.352-0.47,0.705-0.823,0.941c-0.353,0.352-0.823,0.469-1.411,0.587
				c-0.589,0.118-1.177,0.118-1.766,0.118H118V13.665h6c1.529,0,2.588,0.471,3.177,1.295c0.353,0.47,0.587,1.176,0.587,1.882
				s-0.234,1.412-0.587,1.882c-0.235,0.235-0.589,0.471-0.941,0.707C126.941,19.665,127.412,20.019,127.764,20.489L127.764,20.489z
				 M120.823,18.606h2.589c0.588,0,0.941-0.118,1.294-0.353c0.353-0.235,0.471-0.588,0.471-1.059c0-0.588-0.236-0.941-0.706-1.176
				c-0.353-0.118-0.824-0.235-1.412-0.235h-2.354v2.823H120.823z M125.529,22.136c0-0.589-0.234-1.059-0.823-1.295
				c-0.353-0.117-0.706-0.235-1.294-0.235h-2.707V23.9h2.59c0.587,0,0.94-0.118,1.293-0.235
				C125.295,23.43,125.529,22.959,125.529,22.136L125.529,22.136z M137.882,20.136C138,20.489,138,21.077,138,21.9h-6.471
				c0,0.941,0.353,1.529,0.941,1.882c0.353,0.236,0.824,0.354,1.293,0.354c0.59,0,0.942-0.118,1.295-0.354
				c0.236-0.117,0.354-0.353,0.471-0.588h2.353c-0.118,0.588-0.353,1.06-0.822,1.647c-0.824,0.822-1.883,1.294-3.296,1.294
				c-1.176,0-2.234-0.354-3.176-1.059c-0.941-0.706-1.411-1.883-1.411-3.53c0-1.528,0.353-2.705,1.177-3.528
				c0.823-0.824,1.883-1.295,3.176-1.295c0.824,0,1.529,0.118,2.117,0.471c0.589,0.236,1.177,0.706,1.53,1.294
				C137.529,18.842,137.764,19.43,137.882,20.136L137.882,20.136z M135.529,20.371c0-0.588-0.234-1.059-0.589-1.412
				c-0.353-0.353-0.822-0.47-1.411-0.47c-0.588,0-1.059,0.118-1.411,0.47c-0.354,0.353-0.589,0.823-0.589,1.412H135.529z"/>
		</g>
	</g>
</g>
<g>
	<path fill="#FFFFFF" d="M102,22.117v7.412h-4.235v-6.941c0-1.764-0.588-2.94-2.117-2.94c-1.177,0-1.884,0.823-2.235,1.529
		c-0.235,0.353-0.235,0.823-0.235,1.177v7.176h-4.235c0,0,0-11.647,0-12.941h4.235v1.882l0,0l0,0l0,0
		c0.587-0.823,1.528-2.118,3.883-2.118C99.883,16.353,102,18.235,102,22.117L102,22.117z M84.471,10.47
		c-1.412,0-2.471,0.941-2.471,2.236c0,1.294,0.94,2.235,2.354,2.235l0,0c1.528,0,2.47-0.941,2.47-2.235
		C86.823,11.411,85.882,10.47,84.471,10.47L84.471,10.47z M82.235,29.529h4.235V16.588h-4.235V29.529z"/>
</g>
<g>
	<path fill="#FFFFFF" d="M48.588,10h14.823C64.823,10,66,11.059,66,12.588v14.824C66,28.941,64.823,30,63.412,30H48.588
		C47.177,30,46,28.941,46,27.412V12.588C46,11.059,47.177,10,48.588,10L48.588,10z M60.588,12.235c-0.471,0-0.941,0.353-0.941,0.941
		v2.117c0,0.471,0.353,0.941,0.941,0.941h2.235c0.471,0,0.941-0.353,0.941-0.941v-2.117c0-0.471-0.353-0.941-0.941-0.941H60.588z
		 M63.765,18.47H62c0.118,0.589,0.235,1.177,0.235,1.765c0,3.294-2.824,6-6.235,6s-6.235-2.706-6.235-6
		c0-0.588,0.118-1.176,0.235-1.765h-1.882v8.47c0,0.472,0.353,0.824,0.823,0.824h13.882c0.471,0,0.824-0.353,0.824-0.824v-8.47
		H63.765z M56,16.118c-2.235,0-4,1.764-4,3.882c0,2.117,1.765,3.882,4,3.882s4-1.765,4-3.882C60,17.882,58.235,16.118,56,16.118
		L56,16.118z"/>
</g>
</svg>
