<?xml version="1.0" encoding="utf-8"?>
<!-- Generator: Adobe Illustrator 16.0.0, SVG Export Plug-In . SVG Version: 6.00 Build 0)  -->
<!DOCTYPE svg PUBLIC "-//W3C//DTD SVG 1.1//EN" "http://www.w3.org/Graphics/SVG/1.1/DTD/svg11.dtd">
<svg version="1.1" id="Layer_1" xmlns="http://www.w3.org/2000/svg" xmlns:xlink="http://www.w3.org/1999/xlink" x="0px" y="0px"
	 width="180px" height="36.1px" viewBox="0 0 180 36.1" enable-background="new 0 0 180 36.1" xml:space="preserve">
<g>
	<g>
		<path fill="#FFFFFF" d="M23.065,7.9h-2.604c-2.958,0-4.852,1.895-4.852,4.971v2.249h-2.604c-0.237,0-0.355,0.236-0.355,0.354
			v3.314c0,0.234,0.236,0.354,0.355,0.354h2.604v8.401c0,0.235,0.236,0.354,0.354,0.354h3.433c0.236,0,0.354-0.235,0.354-0.354
			v-8.401h3.078c0.236,0,0.355-0.237,0.355-0.354v-3.314c0-0.118,0-0.236-0.119-0.236c-0.119-0.117-0.236-0.117-0.236-0.117H19.75
			v-1.895c0-0.947,0.237-1.42,1.421-1.42h1.774c0.237,0,0.355-0.237,0.355-0.354V8.255C23.421,8.019,23.302,7.9,23.065,7.9
			L23.065,7.9z"/>
	</g>
</g>
<g>
	<g>
		<g>
			<path fill="#FFFFFF" d="M134.117,13.531h-5.059v-1.294h5.059V13.531z M125.764,18.589c0.354,0.473,0.473,1.061,0.473,1.768
				c0,0.705-0.236,1.41-0.59,2c-0.234,0.352-0.471,0.705-0.822,0.939c-0.354,0.354-0.824,0.471-1.412,0.588
				s-1.176,0.117-1.766,0.117H116V11.766h6c1.529,0,2.588,0.471,3.176,1.295c0.354,0.47,0.588,1.176,0.588,1.882
				s-0.234,1.412-0.588,1.882c-0.234,0.235-0.588,0.471-0.939,0.707C124.941,17.766,125.412,18.119,125.764,18.589L125.764,18.589z
				 M118.822,16.706h2.59c0.588,0,0.941-0.118,1.293-0.353c0.354-0.235,0.471-0.588,0.471-1.06c0-0.588-0.234-0.94-0.705-1.176
				c-0.354-0.118-0.824-0.234-1.412-0.234h-2.354v2.822H118.822z M123.529,20.238c0-0.588-0.234-1.059-0.824-1.295
				c-0.352-0.117-0.705-0.234-1.293-0.234h-2.707v3.293h2.59c0.586,0,0.939-0.117,1.293-0.234
				C123.295,21.532,123.529,21.062,123.529,20.238L123.529,20.238z M135.881,18.237C136,18.589,136,19.179,136,20.001h-6.471
				c0,0.941,0.352,1.529,0.941,1.883c0.352,0.236,0.822,0.354,1.293,0.354c0.59,0,0.941-0.117,1.295-0.354
				c0.234-0.117,0.354-0.354,0.471-0.588h2.352c-0.117,0.588-0.352,1.061-0.82,1.646c-0.824,0.822-1.885,1.295-3.297,1.295
				c-1.176,0-2.234-0.355-3.176-1.059c-0.941-0.707-1.412-1.885-1.412-3.531c0-1.529,0.354-2.706,1.178-3.529
				c0.822-0.824,1.883-1.295,3.176-1.295c0.824,0,1.529,0.118,2.117,0.471c0.59,0.236,1.178,0.706,1.529,1.294
				C135.529,16.943,135.764,17.531,135.881,18.237L135.881,18.237z M133.529,18.472c0-0.588-0.234-1.06-0.59-1.412
				c-0.354-0.354-0.822-0.471-1.41-0.471s-1.059,0.118-1.412,0.471s-0.588,0.823-0.588,1.412H133.529z"/>
		</g>
	</g>
</g>
<g>
	<path fill="#FFFFFF" d="M100,20.117v7.411h-4.234v-6.94c0-1.764-0.59-2.94-2.117-2.94c-1.178,0-1.885,0.823-2.236,1.529
		c-0.234,0.353-0.234,0.823-0.234,1.177v7.176h-4.234c0,0,0-11.646,0-12.94h4.234v1.882l0,0l0,0l0,0
		c0.588-0.823,1.527-2.118,3.883-2.118C97.883,14.353,100,16.235,100,20.117L100,20.117z M82.471,8.47
		C81.059,8.47,80,9.411,80,10.706c0,1.294,0.939,2.234,2.354,2.234l0,0c1.527,0,2.471-0.94,2.471-2.234
		C84.822,9.411,83.881,8.47,82.471,8.47L82.471,8.47z M80.234,27.529h4.236v-12.94h-4.236V27.529z"/>
</g>
<g display="none">
	<rect y="0" display="inline" width="36" height="36"/>
	<rect x="108" y="0" display="inline" width="36" height="36.001"/>
	<rect x="144" y="0" display="inline" width="36" height="36.001"/>
	<rect x="72" y="0" display="inline" width="36" height="36"/>
	<rect x="36" y="0" display="inline" width="36" height="36.001"/>
</g>
<g>
	<path fill="#FFFFFF" d="M46.588,8h14.823C62.823,8,64,9.059,64,10.588v14.825c0,1.527-1.177,2.588-2.588,2.588H46.588
		c-1.411,0-2.588-1.061-2.588-2.588V10.588C44,9.059,45.177,8,46.588,8L46.588,8z M58.588,10.235c-0.471,0-0.941,0.354-0.941,0.941
		v2.117c0,0.471,0.354,0.94,0.941,0.94h2.235c0.471,0,0.94-0.353,0.94-0.94v-2.117c0-0.471-0.353-0.941-0.94-0.941H58.588z
		 M61.765,16.47H60c0.118,0.589,0.234,1.177,0.234,1.765c0,3.294-2.823,6.001-6.234,6.001s-6.235-2.707-6.235-6.001
		c0-0.588,0.118-1.176,0.235-1.765h-1.882v8.471c0,0.473,0.353,0.824,0.822,0.824h13.883c0.471,0,0.823-0.354,0.823-0.824V16.47
		H61.765z M54,14.118c-2.235,0-4,1.764-4,3.882s1.765,3.882,4,3.882c2.234,0,4-1.764,4-3.882S56.234,14.118,54,14.118L54,14.118z"/>
</g>
<path fill="#FFFFFF" d="M162,8.001c-5.522,0-10,4.478-10,10c0,5.524,4.478,10,10,10s10-4.477,10-10
	C172,12.478,167.522,8.001,162,8.001z M162.807,21.392c-0.755-0.059-1.073-0.434-1.666-0.793c-0.326,1.709-0.724,3.348-1.904,4.205
	c-0.363-2.584,0.534-4.525,0.952-6.585c-0.711-1.198,0.086-3.609,1.587-3.015c1.847,0.73-1.6,4.454,0.715,4.918
	c2.415,0.486,3.401-4.191,1.903-5.712c-2.165-2.196-6.301-0.05-5.792,3.094c0.124,0.769,0.919,1.002,0.317,2.064
	c-1.385-0.309-1.799-1.4-1.745-2.856c0.086-2.385,2.142-4.054,4.205-4.285c2.609-0.292,5.058,0.958,5.396,3.412
	C167.154,18.609,165.597,21.607,162.807,21.392z"/>
</svg>
