<?xml version="1.0" encoding="utf-8"?>
<!-- Generator: Adobe Illustrator 16.0.0, SVG Export Plug-In . SVG Version: 6.00 Build 0)  -->
<!DOCTYPE svg PUBLIC "-//W3C//DTD SVG 1.1//EN" "http://www.w3.org/Graphics/SVG/1.1/DTD/svg11.dtd">
<svg version="1.1" id="Layer_1" xmlns="http://www.w3.org/2000/svg" xmlns:xlink="http://www.w3.org/1999/xlink" x="0px" y="0px"
	 width="500px" height="200px" viewBox="0 0 500 200" enable-background="new 0 0 500 200" xml:space="preserve">
<rect x="-100" y="-150" display="none" width="700" height="500"/>
<g>
	<g>
		<g>
			<path fill="#FFFFFF" d="M115.833,116.74c5.144-2.602,11.329-5.903,14.646-10.763c4.74-6.948-2.593-16.35-10.458-13.192
				c-6.441,2.587-9.713,13.167-9.869,19.442c-0.102,4.143,1.531,7.8,4.692,10.44c4.63,3.866,11.154,1.289,15.386-1.716
				c1.973-1.401,1.038-8.219-0.939-6.814c-3.384,2.403-7.359,4.352-11.53,2.853c-1.87-0.672-4.261-2.818-4.055-4.771
				c0.481-4.585,2.972-10.452,7.255-12.619c2.785-1.409,5.753,0.585,7.714,2.443c-1.124-1.065,0.985-3.167-0.995-0.848
				c-0.883,1.034-1.959,1.896-3.029,2.723c-3.008,2.323-6.367,4.293-9.756,6.008C112.772,110.999,113.472,117.935,115.833,116.74
				L115.833,116.74z"/>
		</g>
	</g>
	<g>
		<g>
			<path fill="#FFFFFF" d="M163.479,93.803c-9.759-0.236-26.759,1.234-30.117,12.534c-1.697,5.709-1.16,15.135,4.916,18.177
				c5.57,2.789,13.127-1.879,17.479-5c4.339-3.111,9.84-7.884,9.949-13.699c0.013-0.676-0.273-2.271-0.285-2.458
				c0.076,1.186-2.844,0.157-2.843,0.714c0.01,4.497-2.047,9.313-3.562,13.448c-6.23,17.001-15.625,36.293-30.599,47.378
				c-3.642,2.696-7.441,5.108-11.413,7.291c-5.104,2.804-12.505,7.239-18.582,6.284c-2.256-0.354-2.571,6.663,0,7.067
				c3.673,0.577,7.66-1.128,10.996-2.454c5.305-2.108,10.369-4.94,15.168-8.016c3.985-2.554,7.795-5.509,11.177-8.819
				c6.156-6.024,10.882-13.458,15.083-20.92c6.111-10.856,11.977-22.962,14.507-35.237c0.147-0.715,1.521-13.89-1.97-11.442
				c-1.466,1.028-1.575,3.48-1.473,5.078c0.04,0.62,0.086,1.202,0.184,1.811c0.26,1.625,0.438-1.348,0.062-0.5
				c-0.611,1.38-1.73,2.543-2.741,3.636c-4.372,4.727-11.498,9.682-18.201,9.472c-3.845-0.121-5.014-3.434-5.09-6.755
				c-0.084-3.687,4.483-6.061,7.308-7.321c6.055-2.703,13.46-3.363,20.047-3.203C165.927,100.929,165.976,93.863,163.479,93.803
				L163.479,93.803z"/>
		</g>
	</g>
	<g>
		<g>
			<path fill="#FFFFFF" d="M179.098,98.107c-5.725,2.513-11.566,6.851-12.453,13.426c-0.544,4.033,1.312,8.327,4.593,10.726
				c4.122,3.012,8.787,2.665,13.354,0.882c6.75-2.636,14.614-9.862,10.749-17.756c-3.039-6.209-11.959-9.74-18.595-10.066
				c-2.417-0.119-2.518,6.943,0,7.067c4.147,0.204,8.544,2.006,12.099,4.032c1.151,0.656,2.146,1.484,3.049,2.448
				c0.416,0.436,0.723,0.937,0.919,1.502c-0.327-1.588,0.396-1.576-0.574-0.298c-1.745,2.298-4.24,3.979-6.726,5.371
				c-2.853,1.597-5.979,2.336-9.225,1.951c-2.738-0.325-7.354-3.18-5.236-6.082c2.11-2.894,5.748-4.966,8.985-6.387
				C182.188,103.978,181.582,97.017,179.098,98.107L179.098,98.107z"/>
		</g>
	</g>
	<g>
		<g>
			<path fill="#FFFFFF" d="M215.033,21.398c19.744,3.337,40.487,6.458,59.295,13.487c5.021,1.876,12.987,5.993,12.136,12.478
				c-0.92,7-9.498,12.125-15.077,14.945c-9.763,4.936-20.734,8.111-30.88,12.247c-1.767,0.72-1.542,4.63-0.779,5.906
				c8.586,14.369,17.171,28.739,25.757,43.108c2.056,3.44,3.651-3.066,2.498-4.997c-8.585-14.369-17.171-28.739-25.757-43.108
				c-0.26,1.969-0.52,3.937-0.779,5.906c4.797-1.955,9.604-3.881,14.423-5.782c7.233-2.854,14.802-5.095,21.417-9.264
				c10.84-6.833,18.021-21.524,7.879-32.213c-4.609-4.857-11.621-6.815-17.854-8.623c-7.297-2.116-14.727-3.785-22.151-5.379
				c-9.995-2.146-20.047-4.074-30.127-5.777C212.798,13.953,212.46,20.963,215.033,21.398L215.033,21.398z"/>
		</g>
	</g>
	<g>
		<g>
			<path fill="#FFFFFF" d="M336.535,93.718c-10.417,0.827-21.761,6.292-22.512,17.913c-0.193,2.994-0.183,7.407,2.13,9.676
				c1.999,1.961,5.381,0.457,7.514-0.437c3.377-1.416,6.436-3.501,9.846-4.846c3.384-1.334,4.697,4.489,5.199,6.829
				c0.231,1.079,1.396,2.464,2.417,1.268c1.104-1.294,0.963-3.302,0.634-4.835c-0.753-3.511-2.854-10.962-7.592-10.521
				c-5.584,0.521-9.8,6.109-15.543,6.421c-3.137,0.17,0.218-6.359,1.017-7.337c1.733-2.123,4.292-3.473,6.754-4.559
				c3.152-1.39,6.698-2.232,10.137-2.505C339.074,100.583,338.912,93.529,336.535,93.718L336.535,93.718z"/>
		</g>
	</g>
	<g>
		<g>
			<path fill="#FFFFFF" d="M26.354,21.399c14.015,2.177,28.043,5.056,41.647,9.069C79.3,33.8,89.153,38.01,96.409,47.5
				c12.093,15.817,10.534,40.599-4.345,53.952c-14.845,13.322-38.131,15.705-57.15,16.062c-8.318,0.156-16.65-0.326-24.914-1.262
				c-2.327-0.263-2.557,6.778,0,7.067c31.786,3.6,88.114,2.833,96.368-37.508c3.598-17.585,0.545-36.419-12.562-49.414
				c-8.582-8.507-20.715-11.744-32.076-14.753c-11.622-3.079-23.494-5.467-35.376-7.313C24.095,13.981,23.782,21,26.354,21.399
				L26.354,21.399z"/>
		</g>
	</g>
	<g>
		<g>
			<path fill="#FFFFFF" d="M313.356,91.03c-9.338-0.043-19.99,3.994-25.009,12.208c-3.053,4.997-4.192,10.8-0.635,15.84
				c4.407,6.245,15.639,5.85,22.135,5.181c2.552-0.263,2.343-7.309,0-7.067c-5.968,0.615-12.206,0.605-17.694-2.111
				c-6.582-3.257,0.545-9.653,4.304-12.191c4.782-3.23,11.145-4.819,16.899-4.792C315.825,98.109,315.835,91.042,313.356,91.03
				L313.356,91.03z"/>
		</g>
	</g>
	<g>
		<g>
			<path fill="#FFFFFF" d="M345.188,93.721c-0.94,4.341-1.575,8.755-1.825,13.19c-0.279,4.97-0.676,13.107,3.79,16.577
				c9.056,7.036,21.309-16.438,24.342-22.291c1.022-1.972-0.671-8.523-2.498-4.997c-1.85,3.568-3.957,7.014-6.225,10.329
				c-2.767,4.044-7.081,10.726-12.538,11.006c-4.41,0.226-3.519-8.014-3.338-10.566c0.166-2.357,0.494-4.704,0.87-7.035
				c0.099-0.612,0.709-3.738,0.473-2.646c0.332-1.532,0.469-3.543-0.634-4.835C346.582,91.255,345.421,92.643,345.188,93.721
				L345.188,93.721z"/>
		</g>
	</g>
	<g>
		<g>
			<path fill="#FFFFFF" d="M368.7,123.568c3.337-7.645,6.674-15.29,10.011-22.935c0.872-1.997-0.93-8.586-2.498-4.997
				c-0.523,1.197-1.046,2.394-1.569,3.59c-0.426,0.973-0.801,7.365,1.719,5.906c6.74-3.903,14.967-4.989,22.59-4.021
				c2.306,0.292,2.562-6.742,0-7.067c-7.867-0.999-16.566,0.243-23.529,4.274c0.573,1.969,1.146,3.937,1.719,5.906
				c0.523-1.197,1.047-2.394,1.569-3.59c-0.833-1.666-1.665-3.332-2.498-4.997c-3.337,7.645-6.674,15.29-10.011,22.935
				C365.329,120.569,367.134,127.156,368.7,123.568L368.7,123.568z"/>
		</g>
	</g>
	<g>
		<g>
			<path fill="#FFFFFF" d="M251.296,28.311c-9.615,30.325-19.231,60.65-28.847,90.976c-0.782,2.467,1.653,7.975,3.051,3.567
				c9.616-30.325,19.231-60.65,28.847-90.976C255.129,29.411,252.693,23.903,251.296,28.311L251.296,28.311z"/>
		</g>
	</g>
	<g>
		<g>
			<path fill="#FFFFFF" d="M71.566,30.852c-9.194,29.164-18.388,58.327-27.581,87.491c-0.777,2.467,1.66,7.977,3.051,3.566
				c9.193-29.164,18.388-58.327,27.581-87.491C75.396,31.951,72.956,26.441,71.566,30.852L71.566,30.852z"/>
		</g>
	</g>
	<g>
		<g>
			<path fill="#FFFFFF" d="M430.009,16.081c-11.305,34.401-22.609,68.804-33.913,103.205c-0.811,2.467,1.606,7.961,3.051,3.567
				c11.305-34.402,22.608-68.804,33.913-103.206C433.87,17.182,431.452,11.687,430.009,16.081L430.009,16.081z"/>
		</g>
	</g>
	<g>
		<g>
			<path fill="#FFFFFF" d="M344.81,79.369c47.461-0.362,94.923-0.725,142.385-1.087c0.935-0.007,1.87-0.014,2.806-0.021
				c2.415-0.019,2.4-6.899,0-6.881c-47.462,0.363-94.923,0.725-142.384,1.088c-0.936,0.007-1.871,0.014-2.807,0.021
				C342.394,72.507,342.409,79.388,344.81,79.369L344.81,79.369z"/>
		</g>
	</g>
	<g>
		<g>
			<path fill="#FFFFFF" d="M412.274,116.74c5.144-2.603,11.328-5.904,14.645-10.764c4.74-6.948-2.594-16.35-10.458-13.192
				c-6.442,2.587-9.714,13.167-9.868,19.442c-0.104,4.143,1.529,7.8,4.691,10.44c4.629,3.866,11.153,1.289,15.385-1.716
				c1.973-1.401,1.038-8.219-0.939-6.814c-3.384,2.403-7.359,4.352-11.529,2.853c-1.87-0.672-4.26-2.818-4.055-4.771
				c0.481-4.585,2.972-10.452,7.255-12.619c2.784-1.409,5.753,0.585,7.714,2.443c-1.125-1.065,0.985-3.167-0.995-0.848
				c-0.883,1.034-1.959,1.896-3.03,2.723c-3.006,2.323-6.365,4.294-9.754,6.008C409.214,110.999,409.913,117.935,412.274,116.74
				L412.274,116.74z"/>
		</g>
	</g>
	<g>
		<g>
			<g>
				<path fill="#FFFFFF" d="M99.347,123.568c3.524-7.604,7.049-15.209,10.572-22.814c0.694-1.498,0.747-3.504,0-4.997
					c-0.627-1.255-1.886-1.323-2.498,0c-3.524,7.604-7.049,15.209-10.572,22.814c-0.694,1.498-0.747,3.504,0,4.997
					C97.476,124.824,98.734,124.891,99.347,123.568L99.347,123.568z"/>
			</g>
		</g>
		<g>
			<line fill="#EB2227" x1="122.052" y1="68.651" x2="119.548" y2="70.824"/>
			<g>
				<path fill="#FFFFFF" d="M121.16,65.6c-0.835,0.725-1.669,1.449-2.504,2.173c-0.521,0.452-0.726,1.483-0.812,2.112
					c-0.124,0.9-0.078,1.849,0.178,2.723c0.173,0.592,0.48,1.308,1.056,1.624c0.558,0.307,0.954-0.002,1.361-0.356
					c0.835-0.725,1.669-1.449,2.504-2.173c0.521-0.452,0.726-1.483,0.812-2.112c0.124-0.9,0.078-1.849-0.178-2.723
					c-0.173-0.592-0.48-1.308-1.056-1.624C121.964,64.938,121.567,65.247,121.16,65.6L121.16,65.6z"/>
			</g>
		</g>
	</g>
	<g>
		<g>
			<g>
				<path fill="#FFFFFF" d="M275.993,123.568c3.525-7.604,7.052-15.209,10.577-22.814c0.694-1.498,0.747-3.504,0-4.997
					c-0.628-1.256-1.886-1.322-2.498,0c-3.526,7.604-7.052,15.209-10.577,22.814c-0.694,1.498-0.747,3.504,0,4.997
					C274.122,124.824,275.38,124.891,275.993,123.568L275.993,123.568z"/>
			</g>
		</g>
		<g>
			<line fill="#EB2227" x1="298.701" y1="68.65" x2="296.2" y2="70.824"/>
			<g>
				<path fill="#FFFFFF" d="M297.81,65.599c-0.834,0.725-1.668,1.449-2.501,2.174c-0.521,0.453-0.726,1.482-0.812,2.112
					c-0.124,0.9-0.078,1.849,0.178,2.723c0.173,0.592,0.48,1.308,1.056,1.624c0.558,0.307,0.954-0.002,1.361-0.356
					c0.834-0.725,1.667-1.449,2.501-2.174c0.521-0.453,0.726-1.482,0.812-2.112c0.123-0.9,0.078-1.849-0.179-2.723
					c-0.173-0.592-0.48-1.308-1.056-1.624C298.613,64.937,298.217,65.245,297.81,65.599L297.81,65.599z"/>
			</g>
		</g>
	</g>
</g>
</svg>
