<?xml version="1.0" encoding="utf-8"?>
<!-- Generator: Adobe Illustrator 16.0.0, SVG Export Plug-In . SVG Version: 6.00 Build 0)  -->
<!DOCTYPE svg PUBLIC "-//W3C//DTD SVG 1.1//EN" "http://www.w3.org/Graphics/SVG/1.1/DTD/svg11.dtd">
<svg version="1.1" id="Layer_1" xmlns="http://www.w3.org/2000/svg" xmlns:xlink="http://www.w3.org/1999/xlink" x="0px" y="0px"
	 width="500px" height="200px" viewBox="0 0 500 200" enable-background="new 0 0 500 200" xml:space="preserve">
<g>
	
		<image overflow="visible" opacity="0.4" width="509" height="201" xlink:href="B1E7008A49926EA.png"  transform="matrix(1 0 0 1 2.5 6.5)">
	</image>
	<g>
		<g>
			<g>
				<g>
					<path fill="#FFFFFF" d="M117.583,116.563c5.077-2.566,11.184-5.825,14.458-10.625c4.681-6.86-2.561-16.139-10.327-13.021
						c-6.358,2.552-9.587,12.992-9.739,19.186c-0.103,4.094,1.508,7.699,4.63,10.307c4.571,3.818,11.012,1.273,15.188-1.69
						c1.948-1.383,1.025-8.113-0.924-6.727c-3.342,2.372-7.267,4.294-11.383,2.818c-1.846-0.665-4.21-2.786-4.003-4.713
						c0.477-4.526,2.936-10.315,7.162-12.454c2.75-1.394,5.681,0.574,7.616,2.408c-1.107-1.05,0.975-3.124-0.983-0.835
						c-0.873,1.022-1.932,1.87-2.99,2.688c-2.967,2.289-6.287,4.237-9.628,5.927C114.563,110.896,115.251,117.744,117.583,116.563
						L117.583,116.563z"/>
				</g>
			</g>
			<g>
				<g>
					<path fill="#FFFFFF" d="M164.613,93.92c-9.668-0.178-28.937,1.515-30.219,14.349c-1.825,18.29,11.774,19.363,24.182,9.807
						c3.498-2.698,8.321-7.21,8.211-12.115c-0.012-0.612-2.753-6.171-3.112-1.207c-0.236,3.264-1.402,6.435-2.375,9.526
						c-3.178,10.091-8.315,19.866-13.596,29.008c-8.437,14.597-28.825,35.485-47.308,34.22c-2.358-0.16-2.499,6.805,0,6.979
						c15.581,1.074,33.859-14.428,43.056-26.185c8.406-10.752,14.877-23.949,19.488-36.7c2.097-5.807,6.506-15.636,3.456-21.991
						c-0.224-0.468-0.652-1.022-1.233-1.022c-0.055,0-0.116,0-0.173,0c-0.568,0-1.026,0.55-1.231,1.022
						c-0.951,2.167,0,4.855-1.268,6.77c-3.623,5.498-10.705,9.846-17.011,11.392c-5.354,1.31-11.788-3.417-5.741-10.545
						c2.838-3.342,8.676-4.516,12.651-5.323c3.974-0.809,8.171-1.074,12.224-0.998C167.035,100.943,167.071,93.969,164.613,93.92
						L164.613,93.92z"/>
				</g>
			</g>
			<g>
				<g>
					<path fill="#FFFFFF" d="M180.029,98.173c-5.653,2.479-11.417,6.761-12.294,13.25c-0.536,3.979,1.297,8.22,4.535,10.588
						c4.067,2.97,8.672,2.631,13.178,0.869c6.663-2.601,14.426-9.734,10.613-17.527c-2.999-6.127-11.805-9.609-18.355-9.932
						c-2.387-0.12-2.484,6.854,0,6.978c4.097,0.197,8.437,1.978,11.942,3.98c1.137,0.648,2.12,1.461,3.01,2.416
						c0.412,0.43,0.713,0.927,0.907,1.483c-0.324-1.568,0.39-1.554-0.569-0.29c-1.723,2.267-4.186,3.923-6.637,5.302
						c-2.815,1.575-5.903,2.307-9.105,1.921c-2.705-0.315-7.258-3.137-5.168-6c2.084-2.858,5.673-4.904,8.87-6.303
						C183.077,103.966,182.478,97.096,180.029,98.173L180.029,98.173z"/>
				</g>
			</g>
			<g>
				<g>
					<path fill="#FFFFFF" d="M215.5,22.45c18.537,3.147,37.354,6.501,55.297,12.18c7.422,2.344,19.915,7.593,12.777,18.535
						c-3.996,6.122-11.565,9.474-18.089,12.02c-8.29,3.232-16.602,6.387-24.842,9.74c-1.746,0.711-1.522,4.571-0.771,5.834
						c8.474,14.185,16.951,28.366,25.425,42.546c2.026,3.395,3.604-3.024,2.464-4.935c-8.475-14.183-16.949-28.365-25.426-42.549
						c-0.257,1.942-0.512,3.887-0.771,5.83c16.887-6.875,57.749-16.451,46.02-42.847c-4.987-11.233-24.439-13.53-34.882-15.974
						c-12.302-2.876-24.75-5.242-37.201-7.354C213.292,15.102,212.961,22.019,215.5,22.45L215.5,22.45z"/>
				</g>
			</g>
			<g>
				<g>
					<path fill="#FFFFFF" d="M335.433,93.84c-10.283,0.815-21.479,6.208-22.222,17.68c-0.191,2.959-0.183,7.317,2.103,9.552
						c1.978,1.936,5.312,0.455,7.425-0.432c3.334-1.397,6.352-3.458,9.714-4.782c3.342-1.317,4.632,4.432,5.137,6.74
						c0.229,1.065,1.378,2.433,2.387,1.252c1.089-1.278,0.949-3.262,0.623-4.773c-0.747-3.468-2.817-10.822-7.492-10.389
						c-5.515,0.517-9.674,6.035-15.341,6.342c-3.098,0.168,0.218-6.278,1.002-7.24c1.714-2.094,4.236-3.429,6.67-4.503
						c3.111-1.373,6.61-2.201,10.007-2.472C337.939,100.617,337.776,93.655,335.433,93.84L335.433,93.84z"/>
				</g>
			</g>
			<g>
				<g>
					<path fill="#FFFFFF" d="M29.262,22.453c24.042,3.764,57.297,6.531,71.446,29.209c15.002,24.033,0.486,49.749-23,59.146
						c-19.936,7.974-43.604,7.555-64.593,5.274c-2.304-0.251-2.522,6.704,0,6.975c24.296,2.646,50.873,2.242,73.154-8.951
						c20.196-10.144,26.396-32.803,22.152-53.842c-7.178-35.56-49.689-40.173-79.16-44.787
						C27.032,15.129,26.723,22.057,29.262,22.453L29.262,22.453z"/>
				</g>
			</g>
			<g>
				<g>
					<path fill="#FFFFFF" d="M312.551,91.186c-9.148-0.039-19.589,3.884-24.57,11.882c-3.122,5.012-4.374,11.046-0.554,16.038
						c4.536,5.913,15.224,5.543,21.666,4.88c2.52-0.258,2.313-7.213,0-6.979c-6.07,0.623-12.482,0.623-17.967-2.366
						c-5.82-3.172,1.037-9.146,4.368-11.494c4.769-3.369,11.241-5.005,17.06-4.982C314.991,98.173,314.996,91.195,312.551,91.186
						L312.551,91.186z"/>
				</g>
			</g>
			<g>
				<g>
					<path fill="#FFFFFF" d="M343.97,93.84c-0.925,4.289-1.554,8.641-1.799,13.024c-0.274,4.904-0.67,12.938,3.74,16.361
						c8.942,6.949,21.033-16.229,24.023-21.997c1.011-1.945-0.662-8.415-2.466-4.938c-1.916,3.694-4.103,7.258-6.478,10.669
						c-2.69,3.886-7.196,10.768-12.645,10.338c-3.936-0.312-2.814-8.886-2.619-11.24c0.17-2.041,0.463-4.066,0.783-6.082
						c0.099-0.604,0.701-3.688,0.469-2.612c0.331-1.508,0.467-3.495-0.626-4.773C345.344,91.407,344.199,92.776,343.97,93.84
						L343.97,93.84z"/>
				</g>
			</g>
			<g>
				<g>
					<path fill="#FFFFFF" d="M367.178,123.305c3.293-7.545,6.591-15.092,9.884-22.639c0.86-1.973-0.916-8.472-2.466-4.934
						c-0.517,1.184-1.031,2.357-1.549,3.543c-0.422,0.962-0.794,7.262,1.695,5.829c6.706-3.854,14.726-4.874,22.297-3.969
						c2.286,0.271,2.527-6.675,0-6.974c-7.812-0.933-16.302,0.236-23.223,4.215c0.571,1.94,1.13,3.89,1.702,5.825
						c0.517-1.179,1.031-2.359,1.542-3.541c-0.813-1.646-1.638-3.287-2.458-4.934c-3.29,7.544-6.598,15.094-9.883,22.638
						C363.853,120.346,365.629,126.851,367.178,123.305L367.178,123.305z"/>
				</g>
			</g>
			<g>
				<g>
					<path fill="#FFFFFF" d="M251.295,29.278c-9.492,29.934-18.981,59.869-28.469,89.803c-0.773,2.44,1.63,7.871,3.01,3.521
						c9.493-29.934,18.982-59.869,28.469-89.804C255.074,30.363,252.674,24.927,251.295,29.278L251.295,29.278z"/>
				</g>
			</g>
			<g>
				<g>
					<path fill="#FFFFFF" d="M73.889,31.784c-9.077,28.787-18.152,57.573-27.229,86.362c-0.771,2.438,1.638,7.875,3.01,3.521
						c9.076-28.79,18.151-57.575,27.228-86.362C77.67,32.872,75.26,27.43,73.889,31.784L73.889,31.784z"/>
				</g>
			</g>
			<g>
				<g>
					<path fill="#FFFFFF" d="M427.697,17.204c-11.162,33.959-22.315,67.916-33.478,101.873c-0.801,2.442,1.586,7.858,3.012,3.521
						c11.159-33.958,22.317-67.912,33.477-101.874C431.51,18.289,429.123,12.868,427.697,17.204L427.697,17.204z"/>
				</g>
			</g>
			<g>
				<g>
					<path fill="#FFFFFF" d="M343.6,79.678c47.771-0.364,95.537-0.731,143.313-1.092c2.384-0.02,2.369-6.81,0-6.795
						c-47.771,0.364-95.539,0.73-143.313,1.094C341.216,72.904,341.231,79.693,343.6,79.678L343.6,79.678z"/>
				</g>
			</g>
			<g>
				<g>
					<path fill="#FFFFFF" d="M410.189,116.563c5.08-2.566,11.178-5.825,14.455-10.625c4.684-6.86-2.56-16.139-10.324-13.021
						c-6.363,2.552-9.59,12.997-9.736,19.186c-0.104,4.094,1.505,7.699,4.624,10.307c4.569,3.818,11.01,1.273,15.192-1.69
						c1.941-1.383,1.02-8.113-0.924-6.727c-3.35,2.372-7.268,4.294-11.386,2.818c-1.847-0.665-4.206-2.786-4.001-4.713
						c0.475-4.526,2.932-10.315,7.159-12.454c2.755-1.394,5.682,0.574,7.618,2.408c-1.104-1.05,0.979-3.129-0.981-0.835
						c-0.875,1.019-1.932,1.87-2.987,2.688c-2.965,2.289-6.285,4.237-9.629,5.927C407.169,110.896,407.863,117.744,410.189,116.563
						L410.189,116.563z"/>
				</g>
			</g>
			<g>
				<g>
					<g>
						<path fill="#FFFFFF" d="M101.307,123.305c3.481-7.506,6.96-15.014,10.438-22.521c0.687-1.476,0.739-3.458,0-4.932
							c-0.617-1.239-1.859-1.308-2.463,0c-3.481,7.508-6.96,15.014-10.439,22.521c-0.686,1.479-0.738,3.458,0,4.932
							C99.461,124.544,100.703,124.611,101.307,123.305L101.307,123.305z"/>
					</g>
				</g>
				<g>
					<g>
						<path fill="#FFFFFF" d="M122.839,66.084c-0.823,0.714-1.649,1.43-2.474,2.142c-1.657,1.437-0.695,8.152,1.763,6.022
							c0.823-0.712,1.649-1.429,2.475-2.142C126.261,70.671,125.298,63.957,122.839,66.084L122.839,66.084z"/>
					</g>
				</g>
			</g>
			<g>
				<g>
					<g>
						<path fill="#FFFFFF" d="M275.669,123.305c3.48-7.506,6.96-15.014,10.44-22.521c0.687-1.476,0.739-3.458,0-4.932
							c-0.619-1.239-1.86-1.308-2.465,0c-3.479,7.508-6.96,15.014-10.439,22.521c-0.685,1.479-0.738,3.458,0,4.932
							C273.823,124.544,275.066,124.611,275.669,123.305L275.669,123.305z"/>
					</g>
				</g>
				<g>
					<g>
						<path fill="#FFFFFF" d="M297.206,66.082c-0.82,0.716-1.644,1.43-2.467,2.145c-1.66,1.439-0.691,8.154,1.759,6.022
							c0.823-0.715,1.646-1.429,2.472-2.145C300.625,70.668,299.664,63.955,297.206,66.082L297.206,66.082z"/>
					</g>
				</g>
			</g>
		</g>
	</g>
</g>
</svg>
