<?xml version="1.0" encoding="utf-8"?>
<!-- Generator: Adobe Illustrator 16.0.0, SVG Export Plug-In . SVG Version: 6.00 Build 0)  -->
<!DOCTYPE svg PUBLIC "-//W3C//DTD SVG 1.1//EN" "http://www.w3.org/Graphics/SVG/1.1/DTD/svg11.dtd">
<svg version="1.1" id="Layer_1" xmlns="http://www.w3.org/2000/svg" xmlns:xlink="http://www.w3.org/1999/xlink" x="0px" y="0px"
	 width="200px" height="100px" viewBox="0 0 200 100" enable-background="new 0 0 200 100" xml:space="preserve">
<rect fill="#004D28" width="200" height="100"/>
<g>
	<g>
		<g>
			<path fill="#FFFFFF" d="M46.893,61.643c2.036-1.03,4.485-2.337,5.798-4.261c1.877-2.751-1.027-6.472-4.141-5.222
				c-2.55,1.023-3.845,5.21-3.906,7.694c-0.041,1.641,0.605,3.088,1.857,4.133c1.833,1.53,4.416,0.51,6.091-0.679
				c0.781-0.554,0.411-3.253-0.371-2.697c-1.34,0.951-2.914,1.722-4.565,1.13c-0.74-0.267-1.688-1.117-1.605-1.89
				c0.191-1.815,1.177-4.136,2.872-4.994c1.103-0.558,2.278,0.231,3.054,0.966c-0.444-0.421,0.391-1.253-0.394-0.335
				c-0.35,0.41-0.775,0.75-1.199,1.078c-1.19,0.919-2.521,1.7-3.861,2.378C45.682,59.37,45.958,62.116,46.893,61.643L46.893,61.643z
				"/>
		</g>
	</g>
	<g>
		<g>
			<path fill="#FFFFFF" d="M65.753,52.563c-3.877-0.072-11.604,0.607-12.118,5.754c-0.732,7.334,4.721,7.764,9.697,3.932
				c1.403-1.082,3.337-2.891,3.293-4.859c-0.005-0.245-1.104-2.474-1.248-0.484c-0.095,1.309-0.562,2.581-0.952,3.82
				c-1.275,4.047-3.335,7.968-5.453,11.633c-3.383,5.854-11.559,14.231-18.971,13.723c-0.946-0.064-1.002,2.729,0,2.798
				c6.248,0.43,13.578-5.785,17.266-10.5c3.371-4.312,5.966-9.604,7.815-14.718c0.841-2.328,2.609-6.27,1.386-8.818
				c-0.09-0.188-0.262-0.41-0.495-0.41c-0.022,0-0.046,0-0.069,0c-0.228,0-0.412,0.221-0.494,0.41c-0.381,0.869,0,1.947-0.508,2.715
				c-1.453,2.204-4.293,3.948-6.822,4.568c-2.147,0.525-4.727-1.37-2.302-4.228c1.138-1.34,3.479-1.811,5.073-2.135
				c1.594-0.324,3.277-0.431,4.902-0.401C66.724,55.379,66.739,52.582,65.753,52.563L65.753,52.563z"/>
		</g>
	</g>
	<g>
		<g>
			<path fill="#FFFFFF" d="M71.935,54.267c-2.267,0.995-4.578,2.712-4.93,5.314c-0.215,1.596,0.52,3.296,1.818,4.246
				c1.631,1.19,3.478,1.055,5.285,0.349c2.672-1.043,5.785-3.904,4.256-7.029c-1.203-2.458-4.734-3.854-7.361-3.983
				c-0.957-0.048-0.996,2.748,0,2.798c1.643,0.079,3.383,0.793,4.789,1.596c0.456,0.26,0.85,0.587,1.207,0.969
				c0.165,0.172,0.286,0.371,0.364,0.595c-0.13-0.629,0.156-0.623-0.228-0.116c-0.691,0.909-1.679,1.573-2.662,2.126
				c-1.129,0.632-2.367,0.925-3.651,0.771c-1.085-0.128-2.911-1.259-2.073-2.407c0.836-1.146,2.275-1.966,3.557-2.527
				C73.157,56.591,72.917,53.836,71.935,54.267L71.935,54.267z"/>
		</g>
	</g>
	<g>
		<g>
			<path fill="#FFFFFF" d="M86.159,23.902c7.434,1.262,14.979,2.607,22.175,4.884c2.977,0.94,7.986,3.045,5.124,7.433
				c-1.603,2.455-4.638,3.799-7.254,4.82c-3.324,1.296-6.657,2.561-9.962,3.906c-0.7,0.285-0.61,1.833-0.309,2.339
				c3.398,5.688,6.797,11.375,10.196,17.062c0.812,1.361,1.445-1.213,0.988-1.979c-3.398-5.688-6.797-11.375-10.196-17.063
				c-0.103,0.779-0.205,1.559-0.309,2.338c6.772-2.757,23.158-6.597,18.455-17.182c-2-4.505-9.801-5.426-13.989-6.406
				c-4.933-1.153-9.924-2.102-14.918-2.949C85.274,20.955,85.141,23.729,86.159,23.902L86.159,23.902z"/>
		</g>
	</g>
	<g>
		<g>
			<path fill="#FFFFFF" d="M134.254,52.53c-4.124,0.327-8.613,2.49-8.911,7.09c-0.077,1.187-0.073,2.934,0.843,3.83
				c0.793,0.776,2.131,0.183,2.977-0.173c1.337-0.56,2.547-1.386,3.896-1.918c1.34-0.528,1.857,1.778,2.059,2.704
				c0.092,0.427,0.553,0.975,0.957,0.501c0.437-0.512,0.381-1.307,0.25-1.914c-0.299-1.39-1.129-4.34-3.004-4.165
				c-2.211,0.207-3.879,2.419-6.152,2.542c-1.242,0.068,0.087-2.517,0.402-2.903c0.687-0.84,1.699-1.375,2.674-1.806
				c1.248-0.55,2.652-0.883,4.013-0.991C135.259,55.248,135.193,52.456,134.254,52.53L134.254,52.53z"/>
		</g>
	</g>
	<g>
		<g>
			<path fill="#FFFFFF" d="M11.475,23.903c9.641,1.509,22.977,2.619,28.651,11.713c6.016,9.638,0.195,19.95-9.223,23.719
				C22.908,62.532,13.417,62.364,5,61.45c-0.924-0.101-1.011,2.688,0,2.797c9.743,1.061,20.401,0.899,29.336-3.59
				c8.099-4.067,10.585-13.154,8.883-21.591c-2.878-14.26-19.926-16.11-31.744-17.96C10.581,20.966,10.457,23.744,11.475,23.903
				L11.475,23.903z"/>
		</g>
	</g>
	<g>
		<g>
			<path fill="#FFFFFF" d="M125.078,51.466c-3.669-0.016-7.855,1.557-9.854,4.765c-1.252,2.009-1.754,4.429-0.221,6.431
				c1.819,2.371,6.105,2.223,8.688,1.957c1.01-0.104,0.928-2.893,0-2.798c-2.434,0.249-5.006,0.249-7.205-0.95
				c-2.334-1.271,0.416-3.668,1.752-4.609c1.912-1.351,4.508-2.007,6.841-1.998C126.057,54.267,126.059,51.47,125.078,51.466
				L125.078,51.466z"/>
		</g>
	</g>
	<g>
		<g>
			<path fill="#FFFFFF" d="M137.678,52.53c-0.371,1.72-0.623,3.465-0.722,5.223c-0.11,1.967-0.269,5.188,1.5,6.562
				c3.586,2.787,8.435-6.508,9.634-8.822c0.405-0.78-0.266-3.374-0.988-1.979c-0.769,1.481-1.646,2.91-2.598,4.278
				c-1.079,1.558-2.886,4.318-5.07,4.146c-1.578-0.125-1.13-3.564-1.051-4.509c0.068-0.817,0.186-1.63,0.315-2.438
				c0.038-0.242,0.28-1.479,0.187-1.048c0.133-0.604,0.188-1.401-0.251-1.914C138.229,51.555,137.77,52.104,137.678,52.53
				L137.678,52.53z"/>
		</g>
	</g>
	<g>
		<g>
			<path fill="#FFFFFF" d="M146.984,64.346c1.32-3.026,2.643-6.052,3.963-9.078c0.346-0.791-0.367-3.398-0.988-1.979
				c-0.207,0.474-0.414,0.946-0.621,1.421c-0.169,0.386-0.318,2.912,0.68,2.337c2.689-1.545,5.905-1.954,8.941-1.591
				c0.917,0.109,1.014-2.677,0-2.797c-3.133-0.374-6.537,0.095-9.312,1.69c0.229,0.779,0.453,1.56,0.682,2.337
				c0.207-0.473,0.414-0.947,0.619-1.42c-0.327-0.66-0.657-1.319-0.986-1.979c-1.32,3.025-2.645,6.053-3.963,9.078
				C145.65,63.159,146.364,65.767,146.984,64.346L146.984,64.346z"/>
		</g>
	</g>
	<g>
		<g>
			<path fill="#FFFFFF" d="M100.514,26.64c-3.807,12.004-7.612,24.008-11.417,36.012c-0.31,0.979,0.654,3.157,1.207,1.412
				c3.807-12.004,7.612-24.008,11.417-36.012C102.029,27.075,101.066,24.895,100.514,26.64L100.514,26.64z"/>
		</g>
	</g>
	<g>
		<g>
			<path fill="#FFFFFF" d="M29.371,27.645c-3.64,11.544-7.279,23.088-10.919,34.632c-0.309,0.979,0.657,3.158,1.207,1.412
				c3.64-11.544,7.279-23.088,10.919-34.632C30.887,28.081,29.921,25.899,29.371,27.645L29.371,27.645z"/>
		</g>
	</g>
	<g>
		<g>
			<path fill="#FFFFFF" d="M171.254,21.798c-4.477,13.618-8.949,27.235-13.425,40.853c-0.321,0.979,0.636,3.151,1.207,1.412
				c4.476-13.618,8.95-27.234,13.425-40.853C172.782,22.233,171.825,20.059,171.254,21.798L171.254,21.798z"/>
		</g>
	</g>
	<g>
		<g>
			<path fill="#FFFFFF" d="M137.529,46.851c19.156-0.146,38.312-0.293,57.471-0.438c0.956-0.008,0.95-2.731,0-2.725
				c-19.157,0.146-38.312,0.293-57.471,0.439C136.573,44.135,136.579,46.857,137.529,46.851L137.529,46.851z"/>
		</g>
	</g>
	<g>
		<g>
			<path fill="#FFFFFF" d="M164.232,61.643c2.037-1.03,4.483-2.337,5.797-4.261c1.878-2.751-1.026-6.472-4.141-5.222
				c-2.551,1.023-3.845,5.212-3.904,7.694c-0.041,1.641,0.604,3.087,1.855,4.133c1.832,1.53,4.415,0.51,6.092-0.679
				c0.779-0.554,0.409-3.253-0.371-2.697c-1.342,0.951-2.914,1.722-4.565,1.13c-0.74-0.267-1.687-1.117-1.604-1.89
				c0.19-1.815,1.176-4.136,2.871-4.994c1.104-0.558,2.278,0.231,3.055,0.966c-0.443-0.421,0.392-1.254-0.394-0.335
				c-0.351,0.409-0.774,0.75-1.198,1.078c-1.189,0.919-2.521,1.7-3.861,2.378C163.021,59.37,163.3,62.116,164.232,61.643
				L164.232,61.643z"/>
		</g>
	</g>
	<g>
		<g>
			<g>
				<path fill="#FFFFFF" d="M40.366,64.346c1.396-3.01,2.791-6.021,4.186-9.031c0.275-0.593,0.296-1.387,0-1.978
					c-0.248-0.497-0.746-0.524-0.988,0c-1.396,3.01-2.791,6.021-4.186,9.031c-0.275,0.593-0.296,1.387,0,1.978
					C39.626,64.843,40.124,64.87,40.366,64.346L40.366,64.346z"/>
			</g>
		</g>
		<g>
			<line fill="none" x1="49.354" y1="42.607" x2="48.362" y2="43.468"/>
			<g>
				<path fill="#FFFFFF" d="M49.001,41.4c-0.33,0.286-0.661,0.573-0.992,0.859c-0.665,0.576-0.279,3.269,0.707,2.415
					c0.33-0.286,0.661-0.573,0.992-0.859C50.373,43.239,49.987,40.547,49.001,41.4L49.001,41.4z"/>
			</g>
		</g>
	</g>
	<g>
		<g>
			<g>
				<path fill="#FFFFFF" d="M110.288,64.346c1.396-3.01,2.791-6.021,4.187-9.031c0.275-0.593,0.297-1.387,0-1.978
					c-0.248-0.497-0.746-0.524-0.988,0c-1.396,3.01-2.791,6.021-4.187,9.031c-0.274,0.593-0.296,1.387,0,1.978
					C109.548,64.843,110.046,64.87,110.288,64.346L110.288,64.346z"/>
			</g>
		</g>
		<g>
			<line fill="none" x1="119.277" y1="42.607" x2="118.287" y2="43.468"/>
			<g>
				<path fill="#FFFFFF" d="M118.925,41.399c-0.329,0.287-0.659,0.573-0.989,0.86c-0.666,0.577-0.278,3.27,0.705,2.415
					c0.33-0.287,0.66-0.573,0.991-0.86C120.296,43.238,119.91,40.546,118.925,41.399L118.925,41.399z"/>
			</g>
		</g>
	</g>
</g>
</svg>
