<?xml version="1.0" encoding="utf-8"?>
<!-- Generator: Adobe Illustrator 16.0.0, SVG Export Plug-In . SVG Version: 6.00 Build 0)  -->
<!DOCTYPE svg PUBLIC "-//W3C//DTD SVG 1.1//EN" "http://www.w3.org/Graphics/SVG/1.1/DTD/svg11.dtd">
<svg version="1.1" id="Layer_1" xmlns="http://www.w3.org/2000/svg" xmlns:xlink="http://www.w3.org/1999/xlink" x="0px" y="0px"
	 width="75px" height="45px" viewBox="0 0 75 45" enable-background="new 0 0 75 45" xml:space="preserve">
<g>
	<path fill-rule="evenodd" clip-rule="evenodd" fill="#FFFFFF" d="M53.822,1.848c1.172,0.227,2.291,0.411,3.393,0.661
		c4.782,1.08,9.343,2.776,13.709,4.999c0.418,0.212,0.804,0.485,1.222,0.7c0.307,0.158,0.362,0.368,0.325,0.693
		c-0.225,2.041-0.98,3.873-2.152,5.544c-1.537,2.193-3.53,3.895-5.747,5.358c-1.494,0.987-3.07,1.825-4.702,2.558
		c-0.081,0.037-0.161,0.079-0.297,0.146c0.303,0.14,0.557,0.257,0.81,0.375c2.776,1.304,5.371,2.883,7.608,4.999
		c1.72,1.626,3.146,3.47,3.909,5.734c0.281,0.841,0.393,1.737,0.585,2.606c0.052,0.246-0.03,0.393-0.248,0.529
		c-1.629,1.02-3.373,1.802-5.138,2.539c-3.302,1.381-6.676,2.538-10.185,3.281c-1.003,0.213-2.019,0.383-3.08,0.581
		c0-0.197,0-0.331,0-0.466c0.005-3.933-0.008-7.86,0.021-11.794c0.014-2.116-0.726-3.937-2.025-5.56
		c-0.074-0.096-0.275-0.163-0.393-0.135c-2.367,0.545-4.759,0.952-7.177,1.212c-2.838,0.304-5.69,0.42-8.545,0.335
		c-4.087-0.117-8.127-0.615-12.11-1.554c-0.22-0.056-0.333,0.009-0.459,0.169c-1.294,1.664-2.004,3.512-1.981,5.65
		c0.042,3.888,0.022,7.771,0.028,11.655c0,0.136,0,0.271,0,0.461c-0.621-0.099-1.205-0.182-1.785-0.291
		C14.198,41.848,9.26,40.059,4.512,37.72c-0.604-0.295-1.172-0.67-1.764-0.993c-0.201-0.11-0.251-0.241-0.228-0.468
		c0.256-2.617,1.375-4.845,3.044-6.826c1.903-2.257,4.245-3.966,6.808-5.391c0.979-0.543,1.993-1.022,3.031-1.551
		c-0.315-0.148-0.617-0.289-0.917-0.431c-2.993-1.418-5.768-3.157-8.09-5.549c-1.677-1.726-2.98-3.685-3.574-6.052
		C2.681,9.895,2.62,9.311,2.51,8.737c-0.041-0.213,0.04-0.33,0.216-0.442c1.452-0.931,3.012-1.652,4.591-2.327
		c3.63-1.554,7.348-2.838,11.224-3.627c0.83-0.168,1.669-0.292,2.504-0.435c0.032-0.005,0.066,0.007,0.139,0.016
		c0,0.134,0,0.268,0,0.402c-0.005,3.955,0.001,7.908-0.024,11.861c-0.014,2.107,0.751,3.909,2.039,5.523
		c0.068,0.085,0.261,0.141,0.373,0.113c3.385-0.802,6.82-1.274,10.29-1.474c3.588-0.206,7.168-0.109,10.743,0.298
		c2.3,0.261,4.578,0.652,6.834,1.171c0.116,0.028,0.315-0.048,0.392-0.143c1.312-1.647,2.04-3.493,2.021-5.634
		c-0.038-3.896-0.022-7.793-0.028-11.689C53.821,2.207,53.822,2.062,53.822,1.848z M48.568,22.497
		c-6.037-3.936-16.955-3.557-22.103,0.018C31.961,26.223,42.821,26.319,48.568,22.497z"/>
</g>
</svg>
